<?xml version="1.0" encoding="UTF-8" standalone="no"?>
<!-- Created with Inkscape (http://www.inkscape.org/) -->

<svg
   width="5.812355mm"
   height="5.8123393mm"
   viewBox="0 0 5.812355 5.8123393"
   version="1.1"
   id="svg1"
   inkscape:version="1.3 (0e150ed6c4, 2023-07-21)"
   sodipodi:docname="default.svg"
   xml:space="preserve"
   xmlns:inkscape="http://www.inkscape.org/namespaces/inkscape"
   xmlns:sodipodi="http://sodipodi.sourceforge.net/DTD/sodipodi-0.dtd"
   xmlns="http://www.w3.org/2000/svg"
   xmlns:svg="http://www.w3.org/2000/svg"><sodipodi:namedview
     id="namedview1"
     pagecolor="#494949"
     bordercolor="#000000"
     borderopacity="0"
     inkscape:showpageshadow="2"
     inkscape:pageopacity="0.0"
     inkscape:pagecheckerboard="0"
     inkscape:deskcolor="#494949"
     inkscape:document-units="mm"
     inkscape:zoom="0.26740451"
     inkscape:cx="557.20825"
     inkscape:cy="1707.1514"
     inkscape:window-width="1920"
     inkscape:window-height="1027"
     inkscape:window-x="-8"
     inkscape:window-y="48"
     inkscape:window-maximized="1"
     inkscape:current-layer="layer1" /><defs
     id="defs1"><clipPath
       id="clip0_1239_9"><rect
         width="15"
         height="15"
         fill="#ffffff"
         transform="translate(86)"
         id="rect2"
         x="0"
         y="0" /></clipPath></defs><g
     inkscape:label="Layer 1"
     inkscape:groupmode="layer"
     id="layer1"
     transform="translate(-155.08278,-446.70424)"><g
       style="fill:none"
       id="g1"
       transform="matrix(0.26458333,0,0,0.26458333,133.29921,447.671)"><g
         clip-path="url(#clip0_1239_9)"
         id="g2"><path
           d="m 96.625,1.87494 c 0.1642,-0.16415 0.359,-0.29436 0.5735,-0.3832 0.2145,-0.08884 0.4444,-0.13456 0.6765,-0.13456 0.2321,0 0.462,0.04572 0.6765,0.13456 0.2145,0.08884 0.4093,0.21905 0.5735,0.3832 0.1642,0.16416 0.2944,0.35903 0.3832,0.57351 0.0888,0.21447 0.1346,0.44435 0.1346,0.67649 0,0.23215 -0.0458,0.46202 -0.1346,0.6765 -0.0888,0.21448 -0.219,0.40935 -0.3832,0.5735 l -8.4375,8.43746 -3.4375,0.9375 0.9375,-3.4375 z"
           stroke="#ffffff"
           stroke-width="2"
           stroke-linecap="round"
           stroke-linejoin="round"
           id="path2" /></g></g><rect
       style="fill:none;fill-opacity:0.4;stroke:#ffffff;stroke-width:0.491106;stroke-dasharray:none"
       id="rect1"
       width="5.3212442"
       height="5.3212442"
       x="155.32834"
       y="446.94977"
       ry="1.0642489" /></g></svg>
