<?xml version="1.0" encoding="UTF-8" standalone="no"?>
<!-- Created with Inkscape (http://www.inkscape.org/) -->

<svg
   width="5.5338354mm"
   height="5.9176297mm"
   viewBox="0 0 5.5338354 5.9176297"
   version="1.1"
   id="svg1"
   inkscape:version="1.3 (0e150ed6c4, 2023-07-21)"
   sodipodi:docname="default.svg"
   xml:space="preserve"
   xmlns:inkscape="http://www.inkscape.org/namespaces/inkscape"
   xmlns:sodipodi="http://sodipodi.sourceforge.net/DTD/sodipodi-0.dtd"
   xmlns="http://www.w3.org/2000/svg"
   xmlns:svg="http://www.w3.org/2000/svg"><sodipodi:namedview
     id="namedview1"
     pagecolor="#494949"
     bordercolor="#000000"
     borderopacity="0"
     inkscape:showpageshadow="2"
     inkscape:pageopacity="0.0"
     inkscape:pagecheckerboard="0"
     inkscape:deskcolor="#494949"
     inkscape:document-units="mm"
     inkscape:zoom="0.26740451"
     inkscape:cx="557.20825"
     inkscape:cy="1707.1514"
     inkscape:window-width="1920"
     inkscape:window-height="1027"
     inkscape:window-x="-8"
     inkscape:window-y="48"
     inkscape:window-maximized="1"
     inkscape:current-layer="layer1" /><defs
     id="defs1"><clipPath
       id="clip0_1239_9"><rect
         width="15"
         height="15"
         fill="#ffffff"
         transform="translate(86)"
         id="rect2"
         x="0"
         y="0" /></clipPath></defs><g
     inkscape:label="Layer 1"
     inkscape:groupmode="layer"
     id="layer1"
     transform="translate(-726.98177,-392.00118)"><g
       style="fill:none"
       id="g1"
       transform="matrix(0.26458333,0,0,0.26458333,726.47435,389.78818)"><path
         d="M 4.94,29.976 C 3.952,29.6813 3.28467,29.3953 2.938,29.118 c -0.34667,-0.26 -0.52,-0.624 -0.52,-1.092 0,-0.52 0.12133,-1.248 0.364,-2.184 C 3.02467,24.8887 3.33667,23.8313 3.718,22.67 4.11667,21.5087 4.56733,20.2953 5.07,19.03 5.57267,17.7647 6.084,16.5513 6.604,15.39 7.124,14.2287 7.62667,13.1713 8.112,12.218 8.61467,11.2473 9.05667,10.4933 9.438,9.956 L 9.256,8.864 c 0.24267,0 0.58067,0.06067 1.014,0.182 0.4333,0.12133 0.8667,0.26867 1.3,0.442 0.4507,0.17333 0.8407,0.35533 1.17,0.546 0.3467,0.1733 0.5373,0.3207 0.572,0.442 -0.0867,0.416 -0.156,1.0487 -0.208,1.898 -0.052,0.832 -0.078,1.7247 -0.078,2.678 0,1.8893 0.0693,3.744 0.208,5.564 0.156,1.8027 0.5027,3.64 1.04,5.512 0.2773,-1.3867 0.572,-2.7647 0.884,-4.134 0.3293,-1.3867 0.6673,-2.704 1.014,-3.952 0.3467,-1.2653 0.6933,-2.4353 1.04,-3.51 0.3467,-1.0747 0.676,-2.0107 0.988,-2.808 0.3293,-0.8147 0.6327,-1.4473 0.91,-1.898 0.2773,-0.468 0.5287,-0.71933 0.754,-0.754 0.1907,0.03467 0.3987,0.11267 0.624,0.234 0.2253,0.104 0.442,0.234 0.65,0.39 0.208,0.156 0.3987,0.3293 0.572,0.52 0.1733,0.1907 0.312,0.3813 0.416,0.572 -0.5547,0.2253 -1.1093,0.754 -1.664,1.586 -0.5373,0.832 -1.0573,1.846 -1.56,3.042 -0.4853,1.1787 -0.9447,2.4613 -1.378,3.848 -0.416,1.3867 -0.7887,2.756 -1.118,4.108 -0.312,1.3347 -0.5633,2.574 -0.754,3.718 -0.1733,1.144 -0.2687,2.0627 -0.286,2.756 0,0.0347 0.0087,0.0607 0.026,0.078 -0.052,0.0173 -0.1127,0.026 -0.182,0.026 h -0.156 c -0.7973,0 -1.508,-0.104 -2.132,-0.312 C 12.3153,29.4473 11.9167,29.17 11.726,28.806 11.362,27.35 11.0587,25.946 10.816,24.594 10.5733,23.242 10.3653,21.89 10.192,20.538 10.036,19.186 9.906,17.8253 9.802,16.456 9.71533,15.0693 9.646,13.622 9.594,12.114 9.26467,12.634 8.918,13.3187 8.554,14.168 8.19,15 7.83467,15.9187 7.488,16.924 7.14133,17.9293 6.80333,18.9867 6.474,20.096 6.162,21.2053 5.88467,22.2887 5.642,23.346 5.39933,24.4033 5.20867,25.4087 5.07,26.362 4.93133,27.298 4.862,28.1127 4.862,28.806 v 0.78 c 0.01733,0.156 0.04333,0.286 0.078,0.39 z"
         fill="#ffffff"
         id="path1"
         sodipodi:nodetypes="ccsccsscccsccccsccccsccccssccccccccssccsccccscscscccc"
         style="fill:#973c00;fill-opacity:1;stroke:#973c00;stroke-opacity:1"
         inkscape:export-filename="vite.svg"
         inkscape:export-xdpi="96"
         inkscape:export-ydpi="96" /><g
         clip-path="url(#clip0_1239_9)"
         id="g2"><path
           d="m 96.625,1.87494 c 0.1642,-0.16415 0.359,-0.29436 0.5735,-0.3832 0.2145,-0.08884 0.4444,-0.13456 0.6765,-0.13456 0.2321,0 0.462,0.04572 0.6765,0.13456 0.2145,0.08884 0.4093,0.21905 0.5735,0.3832 0.1642,0.16416 0.2944,0.35903 0.3832,0.57351 0.0888,0.21447 0.1346,0.44435 0.1346,0.67649 0,0.23215 -0.0458,0.46202 -0.1346,0.6765 -0.0888,0.21448 -0.219,0.40935 -0.3832,0.5735 l -8.4375,8.43746 -3.4375,0.9375 0.9375,-3.4375 z"
           stroke="#ffffff"
           stroke-width="2"
           stroke-linecap="round"
           stroke-linejoin="round"
           id="path2" /></g></g></g></svg>
